<?xml version="1.0" standalone="no"?>
<!DOCTYPE svg PUBLIC "-//W3C//DTD SVG 20010904//EN"
 "http://www.w3.org/TR/2001/REC-SVG-20010904/DTD/svg10.dtd">
<svg version="1.0" xmlns="http://www.w3.org/2000/svg"
 width="5001.000000pt" height="5001.000000pt" viewBox="0 0 5001.000000 5001.000000"
 preserveAspectRatio="xMidYMid meet">

<g transform="translate(0.000000,5001.000000) scale(0.100000,-0.100000)"
fill="#000000" stroke="none">
<path d="M0 25000 l0 -25000 25000 0 25000 0 0 25000 0 25000 -25000 0 -25000
0 0 -25000z m16560 12470 c1336 -30 5264 -117 6320 -140 4658 -100 9270 -143
12965 -121 1018 6 2131 16 2475 22 796 13 943 7 1215 -51 335 -72 705 -253
993 -486 185 -149 406 -393 538 -594 324 -495 480 -1053 461 -1645 -8 -233
-38 -429 -126 -825 -38 -173 -338 -1539 -665 -3035 -1084 -4955 -1740 -7860
-2421 -10720 -159 -672 -193 -801 -250 -955 -170 -459 -395 -804 -746 -1145
-441 -428 -1008 -689 -1617 -746 -170 -16 -3742 2 -6112 31 -877 11 -1980 24
-2450 30 -1703 20 -5226 89 -7175 140 -3423 89 -5484 159 -7702 260 -358 17
-665 30 -682 30 l-31 0 0 70 0 70 34 0 c19 0 277 11 573 25 2211 102 4422 177
7818 265 2104 54 5403 119 7185 140 465 6 1572 19 2460 30 888 11 2549 24
3690 30 1141 6 2143 15 2225 20 234 16 401 59 605 156 432 206 745 557 917
1024 19 52 162 608 318 1235 277 1114 550 2197 761 3020 308 1200 1282 4897
1934 7340 815 3056 850 3191 877 3350 28 172 26 546 -6 720 -125 700 -539
1268 -1136 1560 -205 100 -428 163 -660 185 -468 45 -6090 63 -9370 30 -3170
-32 -4605 -57 -9740 -170 -1732 -38 -3476 -77 -3875 -85 -1459 -31 -1481 -32
-1615 -59 -344 -72 -616 -215 -872 -459 -191 -183 -355 -431 -454 -686 -16
-42 -190 -589 -385 -1216 -611 -1959 -2567 -8188 -3115 -9919 -138 -435 -265
-851 -283 -925 -77 -314 -73 -661 11 -951 86 -299 236 -553 453 -770 63 -63
158 -145 210 -182 188 -133 418 -229 646 -269 119 -20 130 -20 2934 -19 2700
1 4933 -8 7520 -30 2589 -22 7069 -80 9675 -126 1122 -19 2146 -33 2275 -31
265 5 345 18 554 88 533 177 965 615 1160 1178 20 56 185 641 367 1300 782
2829 1876 6698 2539 8981 266 915 652 2233 656 2238 1 2 28 -3 58 -12 42 -12
56 -21 56 -35 0 -54 -733 -3373 -1201 -5441 -559 -2466 -1557 -6785 -1660
-7180 -107 -411 -296 -793 -549 -1110 -105 -131 -305 -333 -430 -432 -417
-333 -915 -530 -1433 -568 -417 -31 -8553 -145 -12947 -182 -2083 -17 -9449
-18 -9590 0 -340 42 -617 125 -925 277 -282 139 -510 303 -740 530 -807 799
-1117 1961 -825 3090 31 119 273 865 646 1990 900 2718 3274 9839 3339 10015
353 962 1118 1642 2063 1835 207 42 264 45 827 40 297 -2 943 -14 1435 -25z
m830 -5975 l0 -815 2155 0 2155 0 0 -815 0 -815 -2156 0 -2155 0 4 -597 c4
-655 4 -659 68 -823 95 -248 341 -494 589 -589 182 -71 -10 -65 2358 -68
l2132 -3 0 -815 0 -815 -2042 0 c-1207 0 -2112 4 -2211 10 -415 24 -737 113
-1106 306 -471 245 -859 634 -1108 1110 -193 369 -282 698 -303 1118 -5 100
-10 1136 -10 2304 l0 2122 815 0 815 0 0 -815z m13520 -838 c328 -50 586 -132
875 -280 147 -75 328 -191 455 -291 114 -89 377 -358 461 -471 244 -327 416
-712 488 -1095 46 -247 46 -237 46 -1745 l0 -1430 -817 -3 -818 -2 0 1342 c0
815 -4 1380 -10 1438 -14 132 -43 239 -95 347 -129 267 -379 477 -650 548
-135 35 -198 36 -2135 33 l-1915 -3 -96 -27 c-187 -51 -336 -138 -474 -276
-171 -171 -267 -370 -295 -612 -6 -51 -10 -624 -10 -1437 l0 -1353 -810 0
-810 0 0 1433 c0 1550 0 1544 55 1804 82 387 275 793 531 1113 88 109 285 306
394 394 147 117 318 225 505 317 325 160 628 243 975 268 63 5 997 8 2075 7
1802 -2 1969 -3 2075 -19z m-13010 -16494 c39 -37 800 -1530 800 -1572 0 -87
-146 -135 -207 -68 -12 12 -64 109 -117 215 l-96 192 -453 0 -452 0 -105 -206
c-114 -223 -123 -234 -200 -234 -57 0 -112 50 -112 102 0 29 86 206 382 790
248 489 392 763 411 781 23 21 39 27 74 27 35 0 51 -6 75 -27z m10570 0 c39
-36 800 -1531 800 -1572 0 -87 -146 -135 -207 -68 -12 12 -64 109 -117 215
l-96 192 -453 0 -452 0 -105 -206 c-114 -223 -123 -234 -200 -234 -57 0 -112
50 -112 102 0 29 86 207 382 790 249 491 392 763 411 781 23 21 39 27 74 27
35 0 51 -6 75 -27z m5263 9 c23 -13 108 -172 418 -782 255 -501 389 -775 389
-795 0 -84 -109 -133 -187 -85 -27 16 -52 57 -133 220 l-100 200 -453 -2 -452
-3 -102 -200 c-56 -110 -111 -208 -123 -217 -27 -22 -90 -23 -130 -3 -38 20
-60 53 -60 91 0 41 758 1539 795 1572 32 27 97 30 138 4z m-19194 -16 c15 -8
32 -26 39 -41 9 -19 12 -200 12 -705 l0 -680 458 0 c282 0 471 -4 494 -10 49
-14 78 -52 78 -102 0 -32 -7 -47 -34 -74 l-34 -34 -566 0 -566 0 -32 29 -33
29 -3 754 c-2 554 1 760 9 781 26 62 111 87 178 53z m10570 0 c15 -8 32 -26
39 -41 9 -19 12 -200 12 -705 l0 -680 458 0 c282 0 471 -4 494 -10 49 -14 78
-52 78 -102 0 -32 -7 -47 -34 -74 l-34 -34 -566 0 -566 0 -32 29 -33 29 -3
754 c-2 552 1 760 9 781 26 62 111 87 178 53z m-2197 -21 c233 -49 415 -221
469 -445 17 -71 17 -210 0 -280 -22 -91 -68 -176 -133 -246 -49 -52 -80 -74
-152 -109 -137 -66 -198 -75 -516 -75 l-270 0 0 -195 c0 -147 -4 -204 -14
-230 -25 -59 -104 -82 -166 -50 -62 32 -60 3 -60 808 0 520 3 743 11 766 7 18
26 41 43 52 29 18 55 19 373 19 267 0 358 -3 415 -15z m8864 -19 c28 -28 34
-42 34 -76 0 -34 -6 -48 -34 -76 l-34 -34 -291 0 -291 0 0 -691 0 -691 -34
-34 c-28 -28 -42 -34 -76 -34 -49 0 -93 23 -112 59 -10 21 -14 163 -16 709
l-3 682 -285 0 -286 0 -28 29 c-33 33 -45 69 -36 107 4 15 20 39 36 55 l28 29
697 0 697 0 34 -34z"/>
<path d="M17655 13493 c-93 -186 -171 -341 -173 -345 -2 -5 152 -8 342 -8 190
0 346 2 346 5 0 7 -339 685 -343 685 -1 0 -78 -152 -172 -337z"/>
<path d="M28225 13493 c-93 -185 -171 -340 -173 -345 -2 -4 152 -8 342 -8 190
0 346 2 346 5 0 7 -339 685 -343 685 -1 0 -78 -152 -172 -337z"/>
<path d="M33492 13485 l-172 -345 345 0 c190 0 345 2 345 5 0 11 -334 685
-339 685 -3 0 -84 -155 -179 -345z"/>
<path d="M22310 13565 l0 -377 268 4 c300 5 352 15 445 81 94 67 137 153 137
273 0 168 -106 312 -270 366 -58 19 -93 22 -322 26 l-258 4 0 -377z"/>
</g>
</svg>
